<svg xmlns="http://www.w3.org/2000/svg" xmlns:xlink="http://www.w3.org/1999/xlink" viewBox="0,0,256,256" width="80px" height="80px"><g fill="#12de00" fill-rule="nonzero" stroke="none" stroke-width="1" stroke-linecap="butt" stroke-linejoin="miter" stroke-miterlimit="10" stroke-dasharray="" stroke-dashoffset="0" font-family="none" font-weight="none" font-size="none" text-anchor="none" style="mix-blend-mode: normal"><g transform="scale(3.2,3.2)"><path d="M34.73438,8c-1.48545,0 -2.75828,1.10585 -2.96875,2.57617l-1.04883,7.33594c-1.8678,0.78593 -3.61174,1.79575 -5.20312,3.00586l-6.87891,-2.76172c-1.3787,-0.55357 -2.97199,-0.0026 -3.71484,1.2832l-5.26563,9.12109c-0.74333,1.28665 -0.42306,2.94257 0.74609,3.85938l5.82617,4.57227c-0.12486,0.98933 -0.22656,1.98636 -0.22656,3.00781c0,1.02145 0.10235,2.01887 0.22656,3.00781l-5.82617,4.57227h-0.00195c-1.16791,0.91732 -1.48731,2.57301 -0.74414,3.85938l5.26563,9.12109c0.74286,1.28583 2.33615,1.83677 3.71484,1.2832l6.87891,-2.75977c1.59107,1.20927 3.33437,2.2182 5.20117,3.00391l1.04883,7.33594c0.21052,1.47032 1.48474,2.57617 2.9707,2.57617h10.53125c1.48545,0 2.76023,-1.10585 2.9707,-2.57617l1.04883,-7.33594c1.86755,-0.78572 3.61067,-1.79452 5.20117,-3.00391l6.87891,2.75977c1.3787,0.55357 2.97199,0.0026 3.71484,-1.2832l5.26563,-9.12109c0.74184,-1.28665 0.42306,-2.94257 -0.74609,-3.85937l-5.82617,-4.57227c0.12486,-0.98933 0.22656,-1.98636 0.22656,-3.00781c0,-1.02145 -0.10235,-2.01887 -0.22656,-3.00781l5.82617,-4.57227h0.00195c1.16791,-0.91732 1.4873,-2.57301 0.74414,-3.85937l-5.26562,-9.12109c-0.74286,-1.28583 -2.33615,-1.83677 -3.71484,-1.2832l-6.87891,2.75977c-1.59107,-1.20927 -3.33437,-2.2182 -5.20117,-3.00391l-1.04883,-7.33594c-0.21047,-1.47032 -1.48474,-2.57617 -2.9707,-2.57617zM34.73438,10h10.53125c0.50604,0 0.91871,0.3597 0.99023,0.85938l1.20508,8.4375l0.54492,0.21094c2.08479,0.81479 4.01434,1.93885 5.73438,3.31641l0.45508,0.36523l7.91602,-3.17773c0.4693,-0.18843 0.98514,-0.01044 1.23828,0.42773l5.26367,9.12109c0.25284,0.43764 0.15004,0.97248 -0.24805,1.28516l-6.70117,5.25977l0.08789,0.57617c0.16358,1.08195 0.24805,2.19073 0.24805,3.31836c0,1.12763 -0.08555,2.23502 -0.25,3.31641l-0.08789,0.57617l6.70313,5.26172c0.39685,0.31119 0.50021,0.84976 0.24805,1.28711l-5.26367,9.11914c-0.25314,0.43817 -0.76898,0.61617 -1.23828,0.42773l-7.91602,-3.17773l-0.45508,0.36523c-1.71888,1.3774 -3.64864,2.50162 -5.73437,3.31641l-0.54492,0.21094l-1.20508,8.4375c-0.07153,0.49968 -0.48569,0.85938 -0.99023,0.85938h-10.53125c-0.50604,0 -0.91871,-0.3597 -0.99023,-0.85937l-1.20508,-8.4375l-0.54492,-0.21094c-2.08479,-0.81479 -4.01434,-1.93885 -5.73437,-3.31641l-0.45508,-0.36523l-7.91602,3.17773c-0.4693,0.18843 -0.98514,0.01044 -1.23828,-0.42773l-5.26367,-9.12109c-0.25284,-0.43764 -0.15004,-0.97248 0.24805,-1.28516l6.70117,-5.25977l-0.08789,-0.57617c-0.16359,-1.08195 -0.24805,-2.19073 -0.24805,-3.31836c0,-1.12763 0.08554,-2.23502 0.25,-3.31641l0.08789,-0.57617l-6.70312,-5.26172c-0.39685,-0.31119 -0.50072,-0.84781 -0.24805,-1.28516l5.26563,-9.12109c0.25314,-0.43817 0.76898,-0.61617 1.23828,-0.42773l7.91406,3.17773l0.45703,-0.36523c1.71874,-1.37729 3.64949,-2.50158 5.73438,-3.31641l0.54297,-0.21094l1.20508,-8.4375c0.07153,-0.49968 0.48569,-0.85937 0.99023,-0.85937zM40.01953,21c-0.55,0 -1,0.45 -1,1c0,0.55 0.44,1 1,1c0.55,0 1,-0.45 1,-1c0,-0.55 -0.45,-1 -1,-1zM36.1875,21.46094c-0.12844,-0.0225 -0.26344,-0.02023 -0.39844,0.00977c-0.54,0.12 -0.87,0.64945 -0.75,1.18945c0.11,0.47 0.5207,0.7793 0.9707,0.7793c0.08,0 0.15047,-0.00953 0.23047,-0.01953c0.53,-0.12 0.87,-0.65922 0.75,-1.19922c-0.09,-0.405 -0.41742,-0.69227 -0.80273,-0.75977zM43.85156,21.4668c-0.38531,0.06609 -0.71078,0.35867 -0.80078,0.76367c-0.13,0.54 0.21,1.06922 0.75,1.19922c0.07,0.01 0.14875,0.01953 0.21875,0.01953c0.46,0 0.87047,-0.3093 0.98047,-0.7793c0.12,-0.54 -0.22,-1.06945 -0.75,-1.18945c-0.135,-0.0325 -0.27,-0.0357 -0.39844,-0.01367zM32.16016,22.77148c-0.12891,0.00625 -0.25836,0.03766 -0.38086,0.09766c-0.5,0.24 -0.70875,0.83008 -0.46875,1.33008c0.17,0.36 0.53039,0.57031 0.90039,0.57031c0.15,0 0.28969,-0.02961 0.42969,-0.09961c0.5,-0.24 0.70875,-0.84008 0.46875,-1.33008c-0.18,-0.375 -0.5625,-0.58711 -0.94922,-0.56836zM47.87305,22.78125c-0.39094,-0.01875 -0.77313,0.19336 -0.95312,0.56836c-0.24,0.5 -0.0293,1.08984 0.4707,1.33984c0.14,0.06 0.28969,0.08984 0.42969,0.08984c0.37,0 0.73039,-0.19859 0.90039,-0.55859c0.24,-0.5 0.02906,-1.09984 -0.46094,-1.33984c-0.125,-0.06 -0.25641,-0.09336 -0.38672,-0.09961zM28.9082,24.91406c-0.25375,-0.02875 -0.51828,0.0418 -0.73828,0.2168c-0.43,0.34 -0.50016,0.96844 -0.16016,1.39844c0.2,0.25 0.49102,0.38086 0.79102,0.38086c0.21,0 0.42914,-0.0707 0.61914,-0.2207c0.43,-0.34 0.50016,-0.97039 0.16016,-1.40039c-0.175,-0.22 -0.41812,-0.34625 -0.67187,-0.375zM51.11719,24.94141c-0.25375,0.02875 -0.49797,0.15414 -0.66797,0.36914c-0.35,0.43 -0.27984,1.06039 0.16016,1.40039c0.18,0.15 0.40109,0.21875 0.62109,0.21875c0.29,0 0.5793,-0.12914 0.7793,-0.36914c0.34,-0.43 0.27984,-1.06016 -0.16016,-1.41016c-0.215,-0.17 -0.47867,-0.23774 -0.73242,-0.20898zM25.83594,27.76172c-0.255,0.02875 -0.50078,0.15414 -0.67578,0.36914c-0.34,0.43 -0.26984,1.0582 0.16016,1.4082c0.18,0.14 0.39914,0.2207 0.61914,0.2207c0.3,0 0.59102,-0.12891 0.79102,-0.37891h-0.00977c0.35,-0.43 0.27961,-1.06016 -0.15039,-1.41016c-0.215,-0.17 -0.47937,-0.23773 -0.73437,-0.20898zM54.18945,27.79102c-0.25375,-0.02875 -0.52023,0.03898 -0.74023,0.20898c-0.43,0.34 -0.49844,0.97016 -0.14844,1.41016c0.19,0.24 0.4793,0.36914 0.7793,0.36914c0.22,0 0.43914,-0.06875 0.61914,-0.21875c0.43,-0.34 0.50016,-0.97039 0.16016,-1.40039c-0.175,-0.215 -0.41617,-0.34039 -0.66992,-0.36914zM33,29.23438v1.76563v19.76563l17.94336,-10.76562zM23.84375,31.16211c-0.39094,-0.01922 -0.77313,0.19109 -0.95312,0.55859c-0.24,0.5 -0.03125,1.09984 0.46875,1.33984c0.14,0.07 0.28969,0.09961 0.42969,0.09961c0.37,0 0.73039,-0.21055 0.90039,-0.56055c0.24,-0.5 0.04102,-1.09984 -0.45898,-1.33984c-0.125,-0.06 -0.25641,-0.09125 -0.38672,-0.09766zM56.17578,31.19141c-0.12938,0.00625 -0.26172,0.03766 -0.38672,0.09766c-0.5,0.24 -0.70875,0.8418 -0.46875,1.3418c0.17,0.35 0.53039,0.55859 0.90039,0.55859c0.15,0 0.29945,-0.02961 0.43945,-0.09961c0.5,-0.24 0.69899,-0.83008 0.45898,-1.33008c-0.18,-0.375 -0.55523,-0.58711 -0.94336,-0.56836zM35,32.76563l12.05664,7.23438l-12.05664,7.23438zM22.28125,34.97656c-0.38531,0.06609 -0.71078,0.35867 -0.80078,0.76367c-0.12,0.53 0.21,1.06922 0.75,1.19922c0.08,0.01 0.15047,0.02148 0.23047,0.02148c0.45,0 0.85875,-0.31125 0.96875,-0.78125c0.12,-0.53 -0.21,-1.06945 -0.75,-1.18945c-0.135,-0.0325 -0.27,-0.0357 -0.39844,-0.01367zM57.72852,35.01172c-0.12844,-0.02328 -0.26344,-0.02219 -0.39844,0.00781c-0.54,0.12 -0.87,0.66117 -0.75,1.20117c0.1,0.46 0.5207,0.7793 0.9707,0.7793c0.08,0 0.14875,-0.0093 0.21875,-0.0293c0.54,-0.12 0.87977,-0.66141 0.75977,-1.19141v-0.00977c-0.09,-0.3975 -0.41547,-0.68797 -0.80078,-0.75781zM22,38.96094c-0.55,0 -1,0.45 -1,1c0,0.55 0.44,1 1,1c0.55,0 1,-0.44 1,-1c0,-0.55 -0.45,-1 -1,-1zM58,39c-0.55,0 -1,0.45 -1,1v0.03906v0.03125c0,0.55 0.44,0.99977 1,1.00977c0.55,0 1,-0.45 1,-1v-0.04102v-0.03906c0,-0.55 -0.45,-1 -1,-1zM22.61719,42.98242c-0.1275,-0.02344 -0.26149,-0.02219 -0.39648,0.00781c-0.54,0.12 -0.87977,0.65922 -0.75977,1.19922c0.11,0.46 0.51852,0.78125 0.97852,0.78125c0.07,0 0.1407,-0.01125 0.2207,-0.03125c0.54,-0.12 0.87,-0.64945 0.75,-1.18945c-0.09,-0.405 -0.41047,-0.69727 -0.79297,-0.76758zM57.36328,43.08984c-0.38297,0.0675 -0.70523,0.35477 -0.80273,0.75977c-0.12,0.54 0.21,1.07117 0.75,1.20117c0.08,0.02 0.14852,0.0293 0.22852,0.0293c0.45,0 0.8607,-0.3193 0.9707,-0.7793c0.12,-0.54 -0.21,-1.07117 -0.75,-1.20117c-0.135,-0.03 -0.26883,-0.03227 -0.39648,-0.00977zM23.71484,46.77148c-0.12937,0.00625 -0.25977,0.03766 -0.38477,0.09766c-0.5,0.24 -0.7107,0.8418 -0.4707,1.3418c0.17,0.35 0.53039,0.55859 0.90039,0.55859c0.15,0 0.28969,-0.02984 0.42969,-0.08984c0.5,-0.24 0.7107,-0.83984 0.4707,-1.33984c-0.18,-0.375 -0.55719,-0.58711 -0.94531,-0.56836zM56.24414,46.87695c-0.39094,-0.02297 -0.77508,0.1875 -0.95508,0.5625c-0.24,0.49 -0.02906,1.09008 0.46094,1.33008c0.14,0.07 0.28945,0.09961 0.43945,0.09961c0.37,0 0.73039,-0.19859 0.90039,-0.55859c0.24,-0.5 0.04102,-1.09008 -0.45898,-1.33008c-0.125,-0.0625 -0.25641,-0.09586 -0.38672,-0.10352zM26.01367,50.19336c-0.25375,-0.02875 -0.51938,0.0418 -0.73437,0.2168c-0.44,0.34 -0.51016,0.97039 -0.16016,1.40039c0.19,0.25 0.48125,0.37891 0.78125,0.37891c0.22,0 0.43914,-0.06875 0.61914,-0.21875c0.43,-0.34 0.51016,-0.97039 0.16016,-1.40039c-0.17,-0.22 -0.41227,-0.3482 -0.66602,-0.37695zM53.92578,50.2832c-0.255,0.0275 -0.50078,0.15219 -0.67578,0.36719c-0.34,0.43 -0.26984,1.06039 0.16016,1.40039c0.18,0.15 0.39914,0.21875 0.61914,0.21875c0.29,0 0.58125,-0.11914 0.78125,-0.36914c0.35,-0.43 0.27961,-1.06039 -0.15039,-1.40039c-0.215,-0.175 -0.47937,-0.2443 -0.73437,-0.2168zM28.63477,53.05078c-0.255,0.02875 -0.49883,0.15414 -0.67383,0.36914c-0.35,0.43 -0.28156,1.06039 0.14844,1.40039c0.19,0.15 0.41086,0.21875 0.63086,0.21875c0.29,0 0.5793,-0.11914 0.7793,-0.36914c0.35,-0.43 0.27961,-1.06016 -0.15039,-1.41016c-0.215,-0.17 -0.47937,-0.23774 -0.73437,-0.20898zM51.28516,53.12109c-0.255,-0.02875 -0.51938,0.03898 -0.73437,0.20898c-0.43,0.34 -0.50016,0.97039 -0.16016,1.40039c0.2,0.25 0.48906,0.37891 0.78906,0.37891c0.21,0 0.43109,-0.06898 0.62109,-0.20898c0.43,-0.35 0.50016,-0.98016 0.16016,-1.41016c-0.175,-0.215 -0.42078,-0.34039 -0.67578,-0.36914zM32.19336,55.20117c-0.39094,-0.01922 -0.77313,0.19109 -0.95312,0.55859c-0.24,0.5 -0.0293,1.09984 0.4707,1.33984c0.14,0.07 0.28969,0.09961 0.42969,0.09961c0.37,0 0.72844,-0.20859 0.89844,-0.55859c0.24,-0.5 0.04102,-1.09984 -0.45898,-1.33984c-0.125,-0.06 -0.25641,-0.0932 -0.38672,-0.09961zM47.71094,55.24805c-0.12891,0.00484 -0.25836,0.0343 -0.38086,0.0918v0.00977c-0.5,0.23 -0.71047,0.83008 -0.48047,1.33008c0.18,0.36 0.53016,0.57031 0.91016,0.57031c0.14,0 0.28969,-0.02961 0.42969,-0.09961c0.5,-0.24 0.7107,-0.84008 0.4707,-1.33008c-0.18,-0.375 -0.5625,-0.5868 -0.94922,-0.57227zM35.77148,56.55664c-0.38531,0.06609 -0.71078,0.35867 -0.80078,0.76367c-0.13,0.53 0.21,1.06922 0.75,1.19922c0.07,0.01 0.14875,0.01953 0.21875,0.01953c0.46,0 0.87047,-0.30953 0.98047,-0.76953c0.12,-0.54 -0.22,-1.07922 -0.75,-1.19922c-0.135,-0.0325 -0.27,-0.0357 -0.39844,-0.01367zM44.12695,56.58203c-0.1275,-0.02344 -0.26148,-0.02219 -0.39648,0.00781c-0.54,0.12 -0.87977,0.64945 -0.75977,1.18945c0.11,0.47 0.51852,0.79102 0.97852,0.79102c0.07,0 0.1407,-0.01125 0.2207,-0.03125c0.54,-0.12 0.87,-0.65945 0.75,-1.18945c-0.09,-0.405 -0.41047,-0.69727 -0.79297,-0.76758zM39.94922,57c-0.55,0 -0.99977,0.44 -1.00977,1c0,0.55 0.45,1 1,1c0.55,0 1,-0.45 1,-1c0.01,-0.55 -0.44023,-1 -0.99023,-1z"></path></g></g></svg>